<mxfile host="app.diagrams.net" modified="2022-10-08T19:36:58.775Z" agent="5.0 (Windows NT 10.0; Win64; x64) AppleWebKit/537.36 (KHTML, like Gecko) Chrome/106.0.0.0 Safari/537.36" etag="7tJ9xafKaVgS_mxbK_W4" version="20.3.7" type="github">
  <diagram id="fekZhN-9DIX1WIRX_lU1" name="Page-1">
    <mxGraphModel dx="981" dy="1626" grid="1" gridSize="10" guides="1" tooltips="1" connect="1" arrows="1" fold="1" page="1" pageScale="1" pageWidth="850" pageHeight="1100" math="0" shadow="0">
      <root>
        <mxCell id="0" />
        <mxCell id="1" parent="0" />
        <mxCell id="9bxA_ej-zrlDuutFUla0-30" value="we&amp;nbsp;" style="shape=umlFrame;whiteSpace=wrap;html=1;width=60;height=30;boundedLbl=1;verticalAlign=middle;align=left;spacingLeft=5;" parent="1" vertex="1">
          <mxGeometry x="70" y="660" width="740" height="410" as="geometry" />
        </mxCell>
        <mxCell id="9bxA_ej-zrlDuutFUla0-39" value="Company Is &#xa;Not In &#xa;Database" style="fontStyle=0;dashed=1;align=left;" parent="1" vertex="1">
          <mxGeometry x="350" y="1250" width="580" height="320" as="geometry" />
        </mxCell>
        <mxCell id="9bxA_ej-zrlDuutFUla0-35" value="Company In &lt;br&gt;Database" style="html=1;align=left;verticalAlign=middle;rounded=1;absoluteArcSize=1;arcSize=10;dashed=1;" parent="1" vertex="1">
          <mxGeometry x="230" y="-120" width="340" height="90" as="geometry" />
        </mxCell>
        <mxCell id="9bxA_ej-zrlDuutFUla0-12" value=":Interface" style="shape=umlLifeline;perimeter=lifelinePerimeter;container=1;collapsible=0;recursiveResize=0;rounded=0;shadow=0;strokeWidth=1;" parent="1" vertex="1">
          <mxGeometry x="100" y="70" width="100" height="540" as="geometry" />
        </mxCell>
        <mxCell id="9bxA_ej-zrlDuutFUla0-13" value="" style="points=[];perimeter=orthogonalPerimeter;rounded=0;shadow=0;strokeWidth=1;" parent="9bxA_ej-zrlDuutFUla0-12" vertex="1">
          <mxGeometry x="45" y="70" width="10" height="380" as="geometry" />
        </mxCell>
        <mxCell id="9bxA_ej-zrlDuutFUla0-14" value="AddCompany(twitter_handle)" style="verticalAlign=bottom;startArrow=oval;endArrow=block;startSize=8;shadow=0;strokeWidth=1;" parent="9bxA_ej-zrlDuutFUla0-12" target="9bxA_ej-zrlDuutFUla0-13" edge="1">
          <mxGeometry relative="1" as="geometry">
            <mxPoint x="-50" y="70" as="sourcePoint" />
          </mxGeometry>
        </mxCell>
        <mxCell id="9bxA_ej-zrlDuutFUla0-20" value=":Database" style="shape=umlLifeline;perimeter=lifelinePerimeter;container=1;collapsible=0;recursiveResize=0;rounded=0;shadow=0;strokeWidth=1;" parent="1" vertex="1">
          <mxGeometry x="570" y="70" width="100" height="540" as="geometry" />
        </mxCell>
        <mxCell id="9bxA_ej-zrlDuutFUla0-21" value="" style="points=[];perimeter=orthogonalPerimeter;rounded=0;shadow=0;strokeWidth=1;" parent="9bxA_ej-zrlDuutFUla0-20" vertex="1">
          <mxGeometry x="45" y="350" width="10" height="40" as="geometry" />
        </mxCell>
        <mxCell id="pdPbpq1VSYDjHhsiJAQx-4" value="" style="points=[];perimeter=orthogonalPerimeter;rounded=0;shadow=0;strokeWidth=1;" vertex="1" parent="9bxA_ej-zrlDuutFUla0-20">
          <mxGeometry x="45" y="110" width="10" height="30" as="geometry" />
        </mxCell>
        <mxCell id="9bxA_ej-zrlDuutFUla0-29" value="AddCompany(twitter_handle)" style="edgeStyle=orthogonalEdgeStyle;rounded=0;orthogonalLoop=1;jettySize=auto;html=1;startArrow=none;startFill=0;endArrow=classic;endFill=1;labelPosition=center;verticalLabelPosition=top;align=center;verticalAlign=bottom;" parent="1" source="9bxA_ej-zrlDuutFUla0-13" target="9bxA_ej-zrlDuutFUla0-41" edge="1">
          <mxGeometry relative="1" as="geometry">
            <mxPoint x="300" y="140" as="targetPoint" />
            <Array as="points">
              <mxPoint x="330" y="170" />
              <mxPoint x="330" y="170" />
            </Array>
          </mxGeometry>
        </mxCell>
        <mxCell id="9bxA_ej-zrlDuutFUla0-37" value="COMPANY_EXISTS" style="edgeStyle=orthogonalEdgeStyle;rounded=0;orthogonalLoop=1;jettySize=auto;html=1;startArrow=none;startFill=0;endArrow=classic;endFill=1;dashed=1;labelPosition=center;verticalLabelPosition=top;align=center;verticalAlign=bottom;" parent="1" source="9bxA_ej-zrlDuutFUla0-41" target="9bxA_ej-zrlDuutFUla0-13" edge="1">
          <mxGeometry relative="1" as="geometry">
            <Array as="points">
              <mxPoint x="180" y="250" />
              <mxPoint x="180" y="250" />
            </Array>
          </mxGeometry>
        </mxCell>
        <mxCell id="9bxA_ej-zrlDuutFUla0-38" value="Display_error(exists)" style="edgeStyle=orthogonalEdgeStyle;rounded=0;orthogonalLoop=1;jettySize=auto;html=1;dashed=1;startArrow=none;startFill=0;endArrow=classic;endFill=1;labelPosition=center;verticalLabelPosition=top;align=center;verticalAlign=bottom;" parent="1" source="9bxA_ej-zrlDuutFUla0-13" edge="1">
          <mxGeometry relative="1" as="geometry">
            <mxPoint x="40" y="260" as="targetPoint" />
            <Array as="points">
              <mxPoint x="40" y="260" />
            </Array>
          </mxGeometry>
        </mxCell>
        <mxCell id="9bxA_ej-zrlDuutFUla0-40" value=":Backend" style="shape=umlLifeline;perimeter=lifelinePerimeter;container=1;collapsible=0;recursiveResize=0;rounded=0;shadow=0;strokeWidth=1;" parent="1" vertex="1">
          <mxGeometry x="340" y="70" width="100" height="540" as="geometry" />
        </mxCell>
        <mxCell id="9bxA_ej-zrlDuutFUla0-41" value="" style="points=[];perimeter=orthogonalPerimeter;rounded=0;shadow=0;strokeWidth=1;" parent="9bxA_ej-zrlDuutFUla0-40" vertex="1">
          <mxGeometry x="45" y="100" width="10" height="310" as="geometry" />
        </mxCell>
        <mxCell id="9bxA_ej-zrlDuutFUla0-43" value=":Twitter" style="shape=umlLifeline;perimeter=lifelinePerimeter;container=1;collapsible=0;recursiveResize=0;rounded=0;shadow=0;strokeWidth=1;" parent="1" vertex="1">
          <mxGeometry x="700" y="70" width="100" height="540" as="geometry" />
        </mxCell>
        <mxCell id="9bxA_ej-zrlDuutFUla0-44" value="" style="points=[];perimeter=orthogonalPerimeter;rounded=0;shadow=0;strokeWidth=1;" parent="9bxA_ej-zrlDuutFUla0-43" vertex="1">
          <mxGeometry x="45" y="240" width="10" height="40" as="geometry" />
        </mxCell>
        <mxCell id="9bxA_ej-zrlDuutFUla0-45" value="API_CALL for twitter_handle" style="edgeStyle=orthogonalEdgeStyle;rounded=0;orthogonalLoop=1;jettySize=auto;html=1;startArrow=none;startFill=0;endArrow=classic;endFill=1;labelPosition=center;verticalLabelPosition=top;align=center;verticalAlign=bottom;" parent="1" source="9bxA_ej-zrlDuutFUla0-41" target="9bxA_ej-zrlDuutFUla0-44" edge="1">
          <mxGeometry relative="1" as="geometry">
            <mxPoint x="480" y="270" as="sourcePoint" />
            <Array as="points">
              <mxPoint x="720" y="310" />
              <mxPoint x="720" y="310" />
            </Array>
          </mxGeometry>
        </mxCell>
        <mxCell id="9bxA_ej-zrlDuutFUla0-46" value="twitter_handle API data" style="edgeStyle=orthogonalEdgeStyle;rounded=0;orthogonalLoop=1;jettySize=auto;html=1;startArrow=none;startFill=0;endArrow=classic;endFill=1;dashed=1;labelPosition=center;verticalLabelPosition=top;align=center;verticalAlign=bottom;" parent="1" source="9bxA_ej-zrlDuutFUla0-44" target="9bxA_ej-zrlDuutFUla0-41" edge="1">
          <mxGeometry relative="1" as="geometry">
            <Array as="points">
              <mxPoint x="420" y="350" />
              <mxPoint x="420" y="350" />
            </Array>
          </mxGeometry>
        </mxCell>
        <mxCell id="9bxA_ej-zrlDuutFUla0-47" value="Write Handle ID To Database" style="edgeStyle=orthogonalEdgeStyle;rounded=0;orthogonalLoop=1;jettySize=auto;html=1;startArrow=none;startFill=0;endArrow=classic;endFill=1;labelPosition=center;verticalLabelPosition=top;align=center;verticalAlign=bottom;" parent="1" source="9bxA_ej-zrlDuutFUla0-41" target="9bxA_ej-zrlDuutFUla0-21" edge="1">
          <mxGeometry relative="1" as="geometry">
            <Array as="points">
              <mxPoint x="600" y="420" />
              <mxPoint x="600" y="420" />
            </Array>
          </mxGeometry>
        </mxCell>
        <mxCell id="9bxA_ej-zrlDuutFUla0-48" value="Company Added Successfully" style="edgeStyle=orthogonalEdgeStyle;rounded=0;orthogonalLoop=1;jettySize=auto;html=1;dashed=1;startArrow=none;startFill=0;endArrow=classic;endFill=1;labelPosition=center;verticalLabelPosition=top;align=center;verticalAlign=bottom;" parent="1" source="9bxA_ej-zrlDuutFUla0-41" target="9bxA_ej-zrlDuutFUla0-13" edge="1">
          <mxGeometry relative="1" as="geometry">
            <Array as="points">
              <mxPoint x="180" y="480" />
              <mxPoint x="180" y="480" />
            </Array>
          </mxGeometry>
        </mxCell>
        <mxCell id="9bxA_ej-zrlDuutFUla0-49" value="Company Added" style="edgeStyle=orthogonalEdgeStyle;rounded=0;orthogonalLoop=1;jettySize=auto;html=1;dashed=1;startArrow=none;startFill=0;endArrow=classic;endFill=1;labelPosition=center;verticalLabelPosition=top;align=center;verticalAlign=bottom;" parent="1" source="9bxA_ej-zrlDuutFUla0-13" edge="1">
          <mxGeometry relative="1" as="geometry">
            <mxPoint x="40" y="520" as="targetPoint" />
            <Array as="points">
              <mxPoint x="40" y="520" />
            </Array>
          </mxGeometry>
        </mxCell>
        <mxCell id="9bxA_ej-zrlDuutFUla0-50" value="Is This The Right Company (twitter summary)" style="edgeStyle=orthogonalEdgeStyle;rounded=0;orthogonalLoop=1;jettySize=auto;html=1;dashed=1;startArrow=none;startFill=0;endArrow=classic;endFill=1;labelPosition=center;verticalLabelPosition=top;align=center;verticalAlign=bottom;" parent="1" source="9bxA_ej-zrlDuutFUla0-41" target="9bxA_ej-zrlDuutFUla0-13" edge="1">
          <mxGeometry relative="1" as="geometry">
            <Array as="points">
              <mxPoint x="190" y="370" />
              <mxPoint x="190" y="370" />
            </Array>
          </mxGeometry>
        </mxCell>
        <mxCell id="pdPbpq1VSYDjHhsiJAQx-2" value="query_company_exists(twitter_handle)" style="edgeStyle=orthogonalEdgeStyle;rounded=0;orthogonalLoop=1;jettySize=auto;html=1;startArrow=none;startFill=0;endArrow=classic;endFill=1;labelPosition=center;verticalLabelPosition=top;align=center;verticalAlign=bottom;" edge="1" parent="1" source="9bxA_ej-zrlDuutFUla0-41" target="pdPbpq1VSYDjHhsiJAQx-4">
          <mxGeometry relative="1" as="geometry">
            <Array as="points">
              <mxPoint x="600" y="180" />
              <mxPoint x="600" y="180" />
            </Array>
          </mxGeometry>
        </mxCell>
        <mxCell id="pdPbpq1VSYDjHhsiJAQx-3" value="company_exists_response()" style="edgeStyle=orthogonalEdgeStyle;rounded=0;orthogonalLoop=1;jettySize=auto;html=1;startArrow=none;startFill=0;endArrow=classic;endFill=1;dashed=1;labelPosition=center;verticalLabelPosition=top;align=center;verticalAlign=bottom;" edge="1" parent="1" source="pdPbpq1VSYDjHhsiJAQx-4" target="9bxA_ej-zrlDuutFUla0-41">
          <mxGeometry relative="1" as="geometry">
            <Array as="points">
              <mxPoint x="430" y="210" />
              <mxPoint x="430" y="210" />
            </Array>
          </mxGeometry>
        </mxCell>
        <mxCell id="pdPbpq1VSYDjHhsiJAQx-5" value="Write Successful" style="edgeStyle=orthogonalEdgeStyle;rounded=0;orthogonalLoop=1;jettySize=auto;html=1;startArrow=none;startFill=0;endArrow=classic;endFill=1;dashed=1;labelPosition=center;verticalLabelPosition=top;align=center;verticalAlign=bottom;" edge="1" parent="1" source="9bxA_ej-zrlDuutFUla0-21" target="9bxA_ej-zrlDuutFUla0-41">
          <mxGeometry relative="1" as="geometry">
            <Array as="points">
              <mxPoint x="420" y="460" />
              <mxPoint x="420" y="460" />
            </Array>
          </mxGeometry>
        </mxCell>
        <mxCell id="pdPbpq1VSYDjHhsiJAQx-7" value="" style="endArrow=none;dashed=1;html=1;dashPattern=1 3;strokeWidth=2;rounded=0;entryX=1.002;entryY=0.535;entryDx=0;entryDy=0;entryPerimeter=0;exitX=0.001;exitY=0.535;exitDx=0;exitDy=0;exitPerimeter=0;" edge="1" parent="1" source="9bxA_ej-zrlDuutFUla0-30" target="9bxA_ej-zrlDuutFUla0-30">
          <mxGeometry width="50" height="50" relative="1" as="geometry">
            <mxPoint x="150" y="880" as="sourcePoint" />
            <mxPoint x="200" y="830" as="targetPoint" />
          </mxGeometry>
        </mxCell>
      </root>
    </mxGraphModel>
  </diagram>
</mxfile>
